<?xml version="1.0" encoding="utf-8"?>
<!-- Generator: Adobe Illustrator 17.1.0, SVG Export Plug-In . SVG Version: 6.00 Build 0)  -->
<!DOCTYPE svg PUBLIC "-//W3C//DTD SVG 1.1//EN" "http://www.w3.org/Graphics/SVG/1.1/DTD/svg11.dtd">
<svg version="1.1" id="Layer_1" xmlns="http://www.w3.org/2000/svg" xmlns:xlink="http://www.w3.org/1999/xlink" x="0px" y="0px"
	 viewBox="0 0 57.9 48.9" enable-background="new 0 0 57.9 48.9" xml:space="preserve">
<g>
	<path fill="#A3A5A8" d="M16.2,36.2c-0.5,1.1-1,2.1-1.4,3.2c0.1,0.1,0.3,0.1,0.4,0.2c1.5,0.8,3.1,1.7,4.6,2.5
		c0.5,0.3,0.8,0.7,0.8,1.2c0,0.8-0.5,1.3-1.2,1.4c-0.3,0-0.6,0-0.9-0.2c-2-1.1-4.1-2.2-6.1-3.3c-0.4-0.2-0.7-0.6-0.8-1.1
		c-0.1-0.3,0-0.6,0.1-0.9c1-2.3,2.1-4.6,3.1-6.9c0.2-0.5,0.4-0.9,0.7-1.4c0.3-0.6,0.8-0.9,1.4-1.2c1.1-0.6,2.3-1.2,3.5-1.7
		c1.5-0.7,3.1-1.3,4.6-2c0.1,0,0.1-0.1,0.1-0.1c0.7-2.2,1.4-4.5,2.1-6.7c0.2-0.8,0.9-1.1,1.4-1.1c0.9,0.1,1.5,0.9,1.2,1.8
		c-0.8,2.4-1.5,4.8-2.3,7.1c-0.1,0.3-0.2,0.6-0.4,0.8c-0.1,0.1-0.2,0.2-0.4,0.3c-1.9,1.1-3.8,2.2-5.7,3.3c-0.1,0.1-0.1,0.1-0.1,0.2
		c0.1,0.3,0.1,0.6,0.2,0.9c0.4,1.4,1.3,2.4,2.7,3c0.8,0.4,1.6,0.6,2.5,0.7c0.3,0,0.3,0,0.5-0.3c0.9-1.9,1.8-3.9,2.7-5.8
		c0.3-0.6,0.8-0.9,1.4-1c1.5-0.1,2.9-0.1,4.4-0.2c1.3-0.1,2.5-0.1,3.8-0.2c0.4,0,0.7,0,1.1-0.1c0.8,0,1.4,0.5,1.5,1.2
		c0.1,0.8-0.5,1.5-1.2,1.6c-0.9,0.1-1.8,0.2-2.6,0.3c-0.9,0.1-1.9,0.2-2.8,0.4c-0.8,0.1-1.6,0.2-2.4,0.3c-0.2,0-0.3,0.1-0.3,0.3
		c-0.7,2.2-1.4,4.5-2.1,6.7c-0.3,1-0.9,1.6-1.8,2C28,42,27.4,42.1,26.6,42c-0.6-0.1-1.2-0.1-1.8-0.1c-1.1-0.1-2.2-0.4-3.3-0.9
		c-2.3-1-4-2.5-5.2-4.7C16.3,36.3,16.3,36.3,16.2,36.2C16.3,36.2,16.3,36.2,16.2,36.2z"/>
	<path fill="#A3A5A8" d="M16.7,21.1c1.6,0,3.1,1.2,3.4,2.8c0.4,1.6-0.3,3.2-1.8,4c-1.2,0.7-2.7,0.5-3.8-0.3
		c-0.8-0.6-1.3-1.5-1.4-2.5c-0.1-1,0.2-1.9,0.8-2.6c0.6-0.7,1.3-1.1,2.1-1.2C16.3,21.1,16.5,21.1,16.7,21.1z"/>
	<path fill="#A3A5A8" d="M26.7,46.5c0,0.7-0.4,1.2-0.9,1.4c-0.5,0.2-1.1,0.3-1.6,0.5c-0.6,0.1-1.1-0.2-1.2-0.8
		c-0.2-0.9-0.4-1.8-0.6-2.7c-0.1-0.2-0.1-0.5-0.1-0.7c-0.1-0.5,0.3-0.9,0.8-0.7c0.8,0.2,1.6,0.4,2.4,0.6c0.6,0.2,1.1,0.9,1.2,1.5
		C26.7,45.9,26.7,46.3,26.7,46.5z"/>
	<polyline fill="none" stroke="#A3A5A8" stroke-linecap="round" stroke-miterlimit="10" points="17.2,14.1 31.9,16.3 34.6,22.5 
		44.5,26.1 44.5,47.1 	"/>
</g>
</svg>
