<?xml version="1.0" encoding="utf-8"?>
<!-- Generator: Adobe Illustrator 17.1.0, SVG Export Plug-In . SVG Version: 6.00 Build 0)  -->
<!DOCTYPE svg PUBLIC "-//W3C//DTD SVG 1.1//EN" "http://www.w3.org/Graphics/SVG/1.1/DTD/svg11.dtd">
<svg version="1.1" id="Layer_1" xmlns="http://www.w3.org/2000/svg" xmlns:xlink="http://www.w3.org/1999/xlink" x="0px" y="0px"
	 viewBox="0 0 57.9 48.9" enable-background="new 0 0 57.9 48.9" xml:space="preserve">
<path fill="#A4A6A9" d="M34.6,21.5c0.1,1.8,0,3.7-0.3,5.5c-0.4,2.7-1.2,5.3-2.2,7.8c-1.4,3.2-3.3,6.1-5.6,8.7
	c-1.3,1.4-2.6,2.7-4.2,3.7c-0.7,0.5-1.5,1-2.4,1.2c-0.4,0.1-0.7,0-1.1-0.1c-1-0.3-1.8-0.9-2.6-1.5c-1.6-1.2-3-2.6-4.3-4.1
	c-1.8-2.1-3.2-4.3-4.4-6.8c-1.2-2.5-2.1-5.1-2.6-7.9c-0.3-1.6-0.5-3.2-0.5-4.8c0-1.8,0-3.7,0.1-5.5c0.1-1,0.2-2,0.6-2.9
	c0.3-0.6,0.6-1,1.3-1.1c0.4,0,0.8,0,1.2,0.1c1,0.3,2,0.6,3,0.9c1.6,0.5,3.2,1,4.8,1.2c1.9,0.3,3.8,0.4,5.7,0.3
	c1.2-0.1,2.5-0.2,3.7-0.5c1.4-0.4,2.8-0.8,4.3-1.2c0.9-0.3,1.7-0.5,2.6-0.8c0.3-0.1,0.6-0.1,1-0.1c0.5,0,0.9,0.3,1.1,0.8
	c0.4,0.6,0.5,1.3,0.6,2c0.2,1.3,0.3,2.7,0.3,4.1C34.6,21,34.6,21.3,34.6,21.5z M19.5,40.5c1.5,0,3-0.3,4.3-1
	c1.5-0.8,2.7-1.9,3.6-3.3c0.3-0.5,0.2-1-0.3-1.3c-0.6-0.3-1.1-0.2-1.5,0.3c-0.1,0.1-0.1,0.2-0.2,0.3c-1.7,2.5-4.7,3.5-7.5,2.9
	c-2-0.4-3.6-1.5-4.7-3.3c-0.2-0.3-0.6-0.5-1-0.4c-0.7,0.1-1,0.8-0.6,1.5c0.3,0.5,0.7,1,1.1,1.4C14.5,39.6,16.8,40.5,19.5,40.5z
	 M15.1,25.1c0-1.2-1-2.2-2.2-2.2c-1.2,0-2.2,1-2.2,2.1c0,1.1,0.9,2.2,2.1,2.3C14.1,27.3,15,26.3,15.1,25.1z M26.2,27.3
	c1.2,0,2.2-1,2.2-2.2c0-1.2-1-2.2-2.2-2.2c-1.1,0-2.1,1-2.1,2.1C24,26.3,25,27.3,26.2,27.3z"/>
<path fill="#A4A6A9" d="M36.2,27.7c0.1-0.4,0.1-0.8,0.2-1.2c0-0.2,0.1-0.4,0.1-0.6c0-0.2,0.1-0.3,0.3-0.3c0.9-0.1,1.8-0.2,2.7-0.1
	c1.3,0.1,2.6,0.5,3.7,1.2c1.3,0.8,2.4,1.8,3.3,3.2c0.2,0.4,0.2,0.8-0.1,1.1c-0.4,0.5-1.2,0.4-1.5-0.1c-1-1.7-2.6-2.8-4.5-3.3
	c-1.3-0.3-2.5-0.3-3.8,0.1C36.3,27.6,36.2,27.6,36.2,27.7z"/>
<path fill="#A4A6A9" d="M45.1,21.1c-1.2,0-2.2-1-2.2-2.2c0-1.2,1-2.2,2.2-2.2c1.2,0,2.2,1,2.2,2.2C47.2,20.1,46.3,21.1,45.1,21.1z"
	/>
<path fill="#A4A6A9" d="M52.4,12.5c0-0.6-0.1-1.3-0.2-1.9l-0.1-0.5c0-0.2-0.1-0.4-0.1-0.5c0-0.1,0-0.1-0.1-0.2l0,0
	c-0.3-0.5-0.7-0.6-1-0.6c-0.2,0-0.4,0-0.5,0.1c0,0,0,0-0.1,0l0,0C50,8.9,49.8,9,49.5,9.1c-0.5,0.2-1,0.3-1.6,0.5
	c-1.1,0.3-2.2,0.7-3.3,1c-1.7,0.4-3.4,0.7-5.4,0.7c-0.3,0-0.5,0-0.8,0c-1.2,0-2.4-0.1-3.6-0.2c-1.8-0.2-3.6-0.7-5.8-1.4
	c-0.9-0.3-1.8-0.6-2.6-0.8c-0.2-0.1-0.3-0.1-0.5-0.1c-0.4,0-1,0.1-1.2,1.1c-0.1,0.7-0.2,1.3-0.3,1.9c0,0.4-0.1,0.8-0.1,1.1
	c0,0,0,0.1,0,0.1l0,1c0.3-0.1,0.6-0.1,0.9-0.2c0.1,0,0.1-0.1,0.1-0.2c0-0.6,0.1-1.2,0.1-1.8c0.1-0.6,0.2-1.2,0.3-1.8
	c0-0.2,0.1-0.3,0.2-0.3c0.1,0,0.1,0,0.3,0.1c0.9,0.3,1.7,0.5,2.6,0.8c2,0.7,4,1.2,6,1.5c1.2,0.2,2.5,0.2,3.7,0.2c0.3,0,0.5,0,0.8,0
	c1.9-0.1,3.8-0.3,5.7-0.8c1.6-0.4,3.3-1,4.9-1.5c0.3-0.1,0.6-0.2,0.9-0.3c0,0,0.4-0.1,0.4,0.2c0,0.1,0,0.2,0.1,0.2
	c0.1,0.8,0.2,1.5,0.3,2.3c0.1,1.7,0.1,3.5,0.1,5.2c-0.1,1.5-0.2,3-0.5,4.5c-0.5,2.5-1.4,4.9-2.6,7.2c-1.8,3.5-4.1,6.6-7.2,9.1
	c-0.7,0.6-1.5,1.1-2.3,1.5c-0.2,0.1-0.3,0.1-0.5,0.1c-0.2,0-0.3,0-0.5-0.1c-1.1-0.5-2-1.3-2.9-2c-0.6-0.5-1.1-1-1.6-1.6
	c-0.3,0.6-0.2,0.4-0.4,1l0.7,0.7c0.2,0.2,0.5,0.4,0.7,0.6c1.1,1,2.1,1.7,3.1,2.2c0.3,0.2,0.6,0.2,1,0.2c0.3,0,0.6-0.1,0.9-0.2
	c0.8-0.4,1.6-0.9,2.5-1.7c3-2.5,5.4-5.6,7.4-9.4c1.2-2.4,2.1-4.9,2.7-7.5c0.3-1.5,0.5-3.1,0.6-4.6C52.6,16.2,52.6,14.5,52.4,12.5z"
	/>
</svg>
