<?xml version="1.0" encoding="utf-8"?>
<!-- Generator: Adobe Illustrator 17.1.0, SVG Export Plug-In . SVG Version: 6.00 Build 0)  -->
<!DOCTYPE svg PUBLIC "-//W3C//DTD SVG 1.1//EN" "http://www.w3.org/Graphics/SVG/1.1/DTD/svg11.dtd">
<svg version="1.1" id="Layer_1" xmlns="http://www.w3.org/2000/svg" xmlns:xlink="http://www.w3.org/1999/xlink" x="0px" y="0px"
	 viewBox="0 0 57.9 48.9" enable-background="new 0 0 57.9 48.9" xml:space="preserve">
<g>
	<g>
		<g>
			<path fill="#929497" d="M39.6,31C39.6,31,39.6,31,39.6,31c1.2,2.2,2.3,4.3,3.5,6.4c0.1,0.3,0.3,0.5,0.4,0.8c0.2,0.5,0,1-0.5,1
				c-0.4,0-0.8,0.1-1.2,0.1c-0.5,0-1,0.1-1.4,0.1c-0.5,0-1,0.1-1.5,0.1c-0.5,0-1,0.1-1.4,0.1c-0.5,0-1,0.1-1.4,0.1
				c-0.4,0-0.9,0.1-1.3,0.1L33,40c-0.2,0-0.4,0-0.6,0c-0.5,0-0.9,0.1-1.4,0.1c-0.2,0-0.4-0.1-0.6-0.2c-0.4-0.4-0.7-0.7-1.1-1.1
				c-0.3-0.4-0.7-0.7-1-1.1c-0.8-0.8-1.6-1.7-2.4-2.5c-0.5-0.5-1-1-1.4-1.5c-0.8-0.8-1.6-1.7-2.4-2.5c-0.5-0.5-0.9-1-1.4-1.5
				c-0.5-0.6-1.1-1.1-1.6-1.7c0,0-0.1-0.1-0.1-0.1c0,0,0,0,0,0c-0.2,0.5-0.3,0.9-0.5,1.4L17.9,31c0,0,0,0.1,0,0.1
				c-0.2,0.7-0.5,1.4-0.7,2.1c-0.7,1.9-1.3,3.8-2,5.6c-0.1,0.2-0.1,0.3-0.3,0.4c-0.3,0.2-0.6,0.2-0.8,0c-0.2-0.2-0.3-0.5-0.2-0.8
				c0.9-2.4,1.7-4.9,2.6-7.3c0.1-0.2,0.1-0.3,0.2-0.5l0.5-1.6c0-0.1,0-0.1,0.1-0.2c0.3-0.7,0.5-1.4,0.8-2.2c0.1-0.3,0.2-0.6,0.2-1
				c0.1-0.4,0.2-0.7,0.2-1.1c0.1-0.5,0.2-1,0.3-1.5c0,0-0.1,0-0.1,0c-1.1,0-2.3,0-3.4,0c-0.1,0-0.3,0-0.4-0.1
				c-0.2-0.1-0.3-0.3-0.3-0.5c0-0.2,0.1-0.4,0.3-0.5c0.1,0,0.2-0.1,0.4-0.1c0.7,0,1.5,0,2.2,0c0.7,0,1.5,0,2.2,0
				c0.3,0,0.5,0.1,0.7,0.3c0.1,0.1,0.1,0.3,0.1,0.4c-0.1,0.3-0.2,0.6-0.2,1c0,0,0,0,0,0.1c0,0,0.1,0,0.1,0c4.9,0,9.7,0,14.6,0
				c0.1,0,0.1,0,0.1-0.1c0.2-0.7,0.5-1.4,0.7-2.2c0,0,0-0.1,0-0.1c0,0-0.1,0-0.1,0c-0.7,0-1.4,0-2,0c-0.4,0-0.6-0.2-0.8-0.5
				c-0.2-0.4-0.1-0.8,0.2-1.1c0.1-0.1,0.3-0.2,0.4-0.2c1.7,0,3.5,0,5.2,0c0.3,0,0.5,0.1,0.6,0.3c0.3,0.4,0.2,0.9-0.1,1.3
				c-0.1,0.1-0.3,0.2-0.4,0.2c-0.5,0-1,0-1.4,0c0,0-0.1,0-0.1,0c-0.1,0.3-0.2,0.5-0.2,0.8c-0.2,0.8-0.5,1.6-0.7,2.5c0,0,0,0.1,0,0.2
				c0.9,1.6,1.7,3.2,2.6,4.9c0,0,0,0,0,0L39.6,31z M19.7,25.3c-0.1,0.4-0.2,0.8-0.2,1.1c0,0,0,0.1,0,0.1c0.3,0.4,0.7,0.7,1,1
				c0.7,0.7,1.4,1.4,2,2.1c0.7,0.7,1.4,1.4,2.1,2.1c0.7,0.7,1.4,1.4,2,2.1c0.7,0.7,1.4,1.4,2.1,2.1c0.6,0.6,1.2,1.2,1.8,1.9
				c0,0,0.1,0.1,0.1,0.2c1.3-4.3,2.5-8.5,3.7-12.7C29.5,25.3,24.6,25.3,19.7,25.3z M41.7,38c-1.1-2.1-2.3-4.2-3.4-6.3l-0.7-1.5
				c-0.7-1.2-1.3-2.5-2-3.7c-1.2,4.1-2.4,8.1-3.6,12.2L41.7,38z"/>
		</g>
	</g>
	<g>
		<path fill="#929497" d="M14.5,29.7c4.9,0,8.9,4,8.9,8.9c0,4.9-4,8.8-8.9,8.8s-8.8-4-8.8-8.8C5.7,33.6,9.6,29.7,14.5,29.7
			 M14.5,28.6c-5.5,0-9.9,4.5-9.9,9.9s4.5,9.9,9.9,9.9s9.9-4.5,9.9-9.9S20,28.6,14.5,28.6L14.5,28.6z"/>
	</g>
	<g>
		<path fill="#929497" d="M43,29.7c4.9,0,8.8,4,8.8,8.9c0,4.9-4,8.8-8.8,8.8s-8.9-4-8.9-8.8C34.1,33.6,38.1,29.7,43,29.7 M43,28.6
			c-5.5,0-9.9,4.5-9.9,9.9s4.5,9.9,9.9,9.9c5.5,0,9.9-4.5,9.9-9.9S48.5,28.6,43,28.6L43,28.6z"/>
	</g>
</g>
</svg>
