<?xml version="1.0" encoding="utf-8"?>
<!-- Generator: Adobe Illustrator 17.1.0, SVG Export Plug-In . SVG Version: 6.00 Build 0)  -->
<!DOCTYPE svg PUBLIC "-//W3C//DTD SVG 1.1//EN" "http://www.w3.org/Graphics/SVG/1.1/DTD/svg11.dtd">
<svg version="1.1" id="Layer_1" xmlns="http://www.w3.org/2000/svg" xmlns:xlink="http://www.w3.org/1999/xlink" x="0px" y="0px"
	 viewBox="0 0 57.9 48.9" enable-background="new 0 0 57.9 48.9" xml:space="preserve">
<g>
	<path fill="#A4A6A9" d="M23.7,26.1L8.3,41.4l7.1,7l15.4-15.3L23.7,26.1z M9.7,41.4c0.4-0.5,0.9-0.9,1.3-1.4
		c0.4,0.4,0.7,0.7,1.1,1.1c0.5,0.5,1,1,1.5,1.5c0.1,0.1,0.2,0.2,0.4,0.2c0.1,0,0.2,0,0.3-0.1c0.2-0.2,0.2-0.5,0-0.7
		c-0.5-0.5-1.1-1.1-1.6-1.6c-0.3-0.3-0.6-0.6-0.9-1c0.3-0.3,0.6-0.6,0.9-1c0.2,0.1,0.3,0.3,0.5,0.5c0.7,0.7,1.4,1.4,2.1,2
		c0.1,0.1,0.3,0.2,0.4,0.2c0.2,0,0.4-0.1,0.4-0.3c0-0.2,0-0.3-0.1-0.4c-0.7-0.7-1.4-1.4-2.2-2.2c-0.1-0.1-0.3-0.3-0.4-0.4
		c0.3-0.3,0.6-0.6,0.9-1c0,0,0.1,0.1,0.1,0.1c0.8,0.8,1.6,1.6,2.4,2.4c0.1,0.1,0.2,0.2,0.4,0.2c0,0,0,0,0,0c0.2,0,0.3-0.1,0.4-0.3
		c0.1-0.2,0.1-0.3-0.1-0.5c-0.2-0.2-0.4-0.4-0.6-0.6c-0.7-0.7-1.3-1.3-2-2c0,0,0,0,0,0c0.3-0.3,0.6-0.7,1-1c0.2,0.2,0.3,0.3,0.5,0.5
		c0.7,0.7,1.4,1.4,2.1,2.1c0.1,0.1,0.3,0.2,0.4,0.2c0.1,0,0.2,0,0.3-0.1c0.2-0.2,0.3-0.5,0.1-0.7c-0.3-0.4-0.7-0.7-1-1
		c-0.5-0.5-1-1-1.5-1.5c0.3-0.3,0.6-0.6,1-1c0.3,0.3,0.7,0.7,1,1c0.5,0.5,1,1,1.5,1.5c0.1,0.1,0.3,0.2,0.4,0.2
		c0.2,0,0.3-0.1,0.4-0.3c0.1-0.2,0.1-0.4-0.1-0.6c-0.5-0.5-1.1-1.1-1.6-1.6c-0.3-0.3-0.6-0.6-0.9-0.9c0.3-0.3,0.6-0.7,1-1
		c0.1,0.2,0.3,0.3,0.4,0.4c0.7,0.7,1.4,1.4,2.1,2.1c0.1,0.1,0.2,0.2,0.4,0.2c0,0,0,0,0,0c0.2,0,0.3-0.1,0.4-0.3
		c0.1-0.2,0.1-0.3,0-0.5c0-0.1-0.1-0.1-0.1-0.1c-0.8-0.8-1.6-1.6-2.4-2.4c0,0-0.1-0.1-0.1-0.1c0.3-0.3,0.7-0.7,1-1
		c0,0,0.1,0.1,0.1,0.1c0.8,0.8,1.6,1.6,2.4,2.4c0.1,0.1,0.2,0.2,0.4,0.2c0,0,0.1,0,0.1,0c0.2,0,0.3-0.1,0.4-0.3
		c0.1-0.2,0-0.3-0.1-0.5c-0.6-0.6-1.1-1.1-1.7-1.7c-0.3-0.3-0.6-0.6-0.9-0.9c0.3-0.3,0.6-0.6,1-1c0.1,0.1,0.2,0.3,0.4,0.4
		c0.7,0.7,1.4,1.4,2.1,2.1c0.1,0.1,0.2,0.2,0.4,0.2c0,0,0,0,0,0c0.2,0,0.3-0.1,0.4-0.3c0.1-0.2,0-0.4-0.1-0.5
		c-0.4-0.4-0.7-0.7-1.1-1.1c-0.5-0.5-1-1-1.4-1.5c0.2-0.2,0.4-0.4,0.6-0.6c1.9,1.9,3.8,3.8,5.7,5.6c-4.7,4.6-9.3,9.3-14,13.9
		C13.5,45.2,11.6,43.3,9.7,41.4z"/>
	<path fill="#A4A6A9" d="M42.5,7.4L27,22.8l7.1,7l15.4-15.3L42.5,7.4z M28.5,22.8c0.2-0.2,0.3-0.3,0.5-0.5c0.1,0.1,0.3,0.3,0.4,0.4
		c0.7,0.7,1.4,1.4,2.1,2.1c0.1,0.1,0.2,0.2,0.4,0.2c0,0,0.1,0,0.1,0c0.4-0.1,0.5-0.5,0.2-0.8c-0.8-0.8-1.6-1.6-2.4-2.4
		c0,0-0.1-0.1-0.1-0.1c0.3-0.3,0.6-0.6,1-1c0,0,0.1,0,0.1,0.1c0.8,0.8,1.6,1.6,2.4,2.4c0.1,0.1,0.2,0.2,0.4,0.2c0,0,0.1,0,0.1,0
		c0.4-0.1,0.5-0.5,0.2-0.8c-0.2-0.3-0.5-0.5-0.7-0.7c-0.6-0.6-1.2-1.2-1.8-1.8c0,0,0,0,0,0c0,0,0,0,0,0c0.3-0.3,0.6-0.6,1-1
		c0.1,0.1,0.2,0.2,0.3,0.4c0.7,0.7,1.4,1.4,2.2,2.2c0.1,0.1,0.2,0.2,0.4,0.2c0,0,0,0,0,0c0.2,0,0.3-0.1,0.4-0.3
		c0.1-0.2,0.1-0.4-0.1-0.5c-0.4-0.4-0.8-0.8-1.1-1.1c-0.5-0.5-0.9-1-1.4-1.5c0.3-0.3,0.6-0.6,1-1c0.3,0.3,0.6,0.7,1,1
		c0.5,0.5,1,1,1.5,1.5c0.1,0.1,0.3,0.2,0.4,0.2c0.1,0,0.2,0,0.2-0.1c0.3-0.2,0.3-0.5,0.1-0.7c-0.2-0.2-0.4-0.4-0.7-0.7
		c-0.6-0.6-1.2-1.2-1.9-1.8c0,0,0,0,0,0c0.3-0.3,0.6-0.6,1-1c0.1,0.2,0.3,0.3,0.4,0.5c0.7,0.7,1.3,1.3,2,2c0,0,0.1,0.1,0.2,0.1
		c0.1,0.1,0.2,0.1,0.3,0.1c0.1,0,0.2,0,0.3-0.1c0.2-0.2,0.2-0.4,0-0.6c-0.4-0.4-0.7-0.7-1.1-1.1c-0.5-0.5-1-1-1.4-1.4c0,0,0,0,0-0.1
		c0.3-0.3,0.6-0.7,1-1c0.4,0.4,0.7,0.7,1,1.1c0.5,0.5,1,1,1.5,1.5c0.1,0.1,0.2,0.2,0.3,0.2c0,0,0.1,0,0.1,0c0.2,0,0.3-0.1,0.4-0.3
		c0.1-0.2,0-0.4-0.1-0.5c-0.2-0.2-0.4-0.4-0.6-0.6c-0.6-0.6-1.3-1.3-1.9-1.9c0,0,0,0-0.1-0.1c0.3-0.3,0.6-0.6,0.9-1
		c0.2,0.1,0.3,0.3,0.5,0.5c0.7,0.7,1.4,1.4,2.1,2.1c0.1,0.1,0.3,0.2,0.4,0.2c0.2,0,0.4-0.1,0.4-0.3c0.1-0.2,0-0.3-0.2-0.5
		c-0.8-0.8-1.6-1.6-2.4-2.4c0,0-0.1-0.1-0.1-0.1c0.3-0.4,0.6-0.7,1-1c0.1,0.1,0.1,0.1,0.1,0.1c0.8,0.8,1.6,1.6,2.4,2.4
		c0.1,0.1,0.2,0.2,0.4,0.2c0.1,0,0.1,0,0.2,0c0.3-0.1,0.4-0.5,0.2-0.7c-0.2-0.2-0.4-0.4-0.6-0.6c-0.7-0.7-1.3-1.3-2-2
		c0.5-0.5,1-1,1.5-1.5c1.9,1.9,3.8,3.7,5.7,5.6c-4.7,4.6-9.3,9.3-14,13.9C32.2,26.5,30.4,24.7,28.5,22.8z"/>
	<g>
		<g>
			<path fill="#A4A6A9" d="M13.8,17.3c1.5-1.5,3-2.9,4.4-4.4L18,12.8c-1.4-0.8-2.9-1.5-4.3-2.3c-0.8-0.4-1.6-0.8-2.4-1.3
				c-0.4-0.2-0.9-0.1-1.2,0.3c-0.2,0.3-0.2,0.7,0,1c1.2,2.2,2.3,4.4,3.5,6.6L13.8,17.3z"/>
			<path fill="#A4A6A9" d="M19.5,13.8L19,13.5l-4.6,4.6l0.3,0.4l26,25.8c1.6-1.6,3.1-3.1,4.7-4.7L19.5,13.8z"/>
		</g>
		<path fill="#A4A6A9" d="M46.2,40.4l-4.7,4.7c0.2,0.2,0.5,0.5,0.7,0.7c1.4,1.4,3.5,1.4,4.8,0c1.2-1.2,1.2-3.3,0-4.5
			C46.7,40.9,46.5,40.7,46.2,40.4z"/>
	</g>
</g>
</svg>
