<?xml version="1.0" encoding="utf-8"?>
<!-- Generator: Adobe Illustrator 17.1.0, SVG Export Plug-In . SVG Version: 6.00 Build 0)  -->
<!DOCTYPE svg PUBLIC "-//W3C//DTD SVG 1.1//EN" "http://www.w3.org/Graphics/SVG/1.1/DTD/svg11.dtd">
<svg version="1.1" id="Layer_1" xmlns="http://www.w3.org/2000/svg" xmlns:xlink="http://www.w3.org/1999/xlink" x="0px" y="0px"
	 viewBox="0 0 90.4 90.4" enable-background="new 0 0 90.4 90.4" xml:space="preserve">
<g>
	<path fill="#FFF229" d="M86.7,45.2c0-22.9-18.6-41.5-41.5-41.5V0c25,0,45.2,20.2,45.2,45.2c0,20.4-13.5,37.6-32,43.2l-1.1-3.6
		C74.3,79.7,86.7,63.8,86.7,45.2z"/>
	<path opacity="0.8" fill="#929497" d="M0,45.2C0,20.2,20.2,0,45.2,0v3.7C22.3,3.7,3.7,22.3,3.7,45.2s18.6,41.5,41.5,41.5
		c4.2,0,8.3-0.6,12.1-1.8l1.1,3.6c-4.2,1.3-8.6,2-13.2,2C20.2,90.4,0,70.2,0,45.2z"/>
</g>
</svg>
