<?xml version="1.0" encoding="utf-8"?>
<!-- Generator: Adobe Illustrator 17.1.0, SVG Export Plug-In . SVG Version: 6.00 Build 0)  -->
<!DOCTYPE svg PUBLIC "-//W3C//DTD SVG 1.1//EN" "http://www.w3.org/Graphics/SVG/1.1/DTD/svg11.dtd">
<svg version="1.1" id="Layer_1" xmlns="http://www.w3.org/2000/svg" xmlns:xlink="http://www.w3.org/1999/xlink" x="0px" y="0px"
	 viewBox="0 0 30 30" enable-background="new 0 0 30 30" xml:space="preserve">
<g>
	<g>
		<g>
			<path fill="#C4C4C4" d="M15,0C6.7,0,0,6.7,0,15c0,8.3,6.7,15,15,15c8.3,0,15-6.7,15-15C30,6.7,23.3,0,15,0z M22.8,20.4
				c0,1.4-1.2,2.6-2.6,2.6H9.8c-1.4,0-2.6-1.2-2.6-2.6v-6.5h0V10c0-1.1,0.7-2,1.6-2.4c0.3-0.1,0.7-0.2,1-0.2h10.4
				c0.5,0,1,0.2,1.5,0.4c0.7,0.5,1.2,1.3,1.2,2.2V20.4z"/>
		</g>
		<path fill="#C4C4C4" d="M21.2,9.4c0-0.1-0.1-0.3-0.3-0.3h-1.5c-0.2,0-0.3,0.1-0.3,0.3v1.5c0,0.1,0.1,0.3,0.3,0.3h1.5
			c0.2,0,0.3-0.1,0.3-0.3V9.4z"/>
		<g>
			<path fill="#C4C4C4" d="M20.2,22c0.9,0,1.6-0.7,1.6-1.6v-6.5h-3.3c0.2,0.4,0.3,0.9,0.3,1.3c0,2.1-1.7,3.8-3.8,3.8
				c-2.1,0-3.8-1.7-3.8-3.8c0-0.5,0.1-0.9,0.3-1.3H8.2v6.5c0,0.9,0.7,1.6,1.6,1.6H20.2z"/>
			<path fill="#C4C4C4" d="M15,18.1c1.6,0,2.8-1.3,2.8-2.8c0-0.5-0.2-1-0.4-1.4c-0.1-0.2-0.2-0.3-0.3-0.4c0,0-0.1-0.1-0.1-0.1
				c-0.2-0.2-0.3-0.3-0.5-0.4c0,0-0.1-0.1-0.1-0.1c-0.2-0.1-0.3-0.2-0.5-0.2c-0.1,0-0.1,0-0.2-0.1c-0.2-0.1-0.5-0.1-0.7-0.1
				s-0.5,0-0.7,0.1c-0.1,0-0.1,0-0.2,0.1c-0.2,0.1-0.3,0.1-0.5,0.2c0,0-0.1,0.1-0.1,0.1c-0.2,0.1-0.4,0.3-0.5,0.4
				c0,0-0.1,0.1-0.1,0.1c-0.1,0.1-0.2,0.3-0.3,0.4c-0.2,0.4-0.4,0.9-0.4,1.4C12.2,16.8,13.4,18.1,15,18.1z"/>
		</g>
	</g>
</g>
</svg>
