<?xml version="1.0" encoding="utf-8"?>
<!-- Generator: Adobe Illustrator 17.1.0, SVG Export Plug-In . SVG Version: 6.00 Build 0)  -->
<!DOCTYPE svg PUBLIC "-//W3C//DTD SVG 1.1//EN" "http://www.w3.org/Graphics/SVG/1.1/DTD/svg11.dtd">
<svg version="1.1" id="Layer_1" xmlns="http://www.w3.org/2000/svg" xmlns:xlink="http://www.w3.org/1999/xlink" x="0px" y="0px"
	 viewBox="0 0 57.9 48.9" enable-background="new 0 0 57.9 48.9" xml:space="preserve">
<g>
	<path fill="#A3A5A8" d="M35.9,18.8c7.4,0,13.5,6,13.5,13.5c0,2.5-0.7,4.9-1.9,7l2,7.7l-8.2-2.2c-1.6,0.7-3.4,1.1-5.3,1.1
		c-7.4,0-13.5-6-13.5-13.5S28.5,18.8,35.9,18.8 M35.9,17.7c-8,0-14.6,6.5-14.6,14.6s6.5,14.6,14.6,14.6c1.9,0,3.7-0.3,5.4-1l7.9,2.1
		l1.8,0.5l-0.5-1.8l-1.9-7.2c1.2-2.2,1.9-4.6,1.9-7.1C50.5,24.3,43.9,17.7,35.9,17.7L35.9,17.7z"/>
	<path fill="#A3A5A8" d="M22.8,35.1l10.4-10.4c-0.2-0.3-0.4-0.6-0.7-0.9l-9.9,9.9C22.6,34.2,22.7,34.6,22.8,35.1z"/>
	<path fill="#A3A5A8" d="M23.9,38.3l10.7-10.7c-0.1-0.4-0.3-0.8-0.5-1.1L23.4,37.2C23.5,37.6,23.7,38,23.9,38.3z"/>
	<path fill="#A3A5A8" d="M25.6,41l9.8-9.8c0-0.5-0.1-1-0.2-1.4L24.9,40.1C25.2,40.4,25.4,40.7,25.6,41z"/>
	<path fill="#A3A5A8" d="M27.9,43.1l7-7c0.2-0.7,0.3-1.3,0.4-2L27,42.4C27.3,42.6,27.6,42.9,27.9,43.1z"/>
	<path fill="#A3A5A8" d="M30.2,21.6L22.9,29c0,0,0,0,0,0c-0.1,0.3-0.2,0.7-0.2,1c0,0.3-0.1,0.6-0.1,0.9l8.6-8.6
		C30.8,22.1,30.5,21.9,30.2,21.6z"/>
	<path fill="#A3A5A8" d="M29,43.8c0.4,0.2,0.7,0.4,1.1,0.6c3.9-2.6,6.5-7.1,6.5-12.1c0-5.1-2.6-9.5-6.5-12.1
		c-0.4,0.2-0.7,0.4-1.1,0.6c3.9,2.4,6.5,6.6,6.5,11.5S32.9,41.5,29,43.8z"/>
	<g>
		<path fill="#A3A5A8" d="M29,45.1L29,45.1c-2.1,1.1-4.4,1.8-7,1.8c-1.9,0-3.7-0.3-5.4-1L8.8,48l-1.8,0.5l0.5-1.8l1.9-7.2
			c-1.2-2.2-1.9-4.6-1.9-7.1c0-8,6.5-14.6,14.6-14.6c2.5,0,4.9,0.6,7,1.8l0,0l0.2,0.2c0,0-7.8,4.3-7.3,13.3c0,0,0.1,7.1,7.4,11.4
			L29,45.1z"/>
	</g>
</g>
</svg>
