<?xml version="1.0" encoding="utf-8"?>
<!-- Generator: Adobe Illustrator 17.1.0, SVG Export Plug-In . SVG Version: 6.00 Build 0)  -->
<!DOCTYPE svg PUBLIC "-//W3C//DTD SVG 1.1//EN" "http://www.w3.org/Graphics/SVG/1.1/DTD/svg11.dtd" [
	<!ENTITY ns_flows "http://ns.adobe.com/Flows/1.0/">
	<!ENTITY ns_extend "http://ns.adobe.com/Extensibility/1.0/">
	<!ENTITY ns_ai "http://ns.adobe.com/AdobeIllustrator/10.0/">
	<!ENTITY ns_graphs "http://ns.adobe.com/Graphs/1.0/">
]>
<svg version="1.1" id="Layer_1" xmlns:x="&ns_extend;" xmlns:i="&ns_ai;" xmlns:graph="&ns_graphs;"
	 xmlns="http://www.w3.org/2000/svg" xmlns:xlink="http://www.w3.org/1999/xlink" xmlns:a="http://ns.adobe.com/AdobeSVGViewerExtensions/3.0/"
	 x="0px" y="0px" viewBox="0 0 75.8 72.9" enable-background="new 0 0 75.8 72.9" xml:space="preserve">
<g>
	<g>
		<polygon fill="none" stroke="#A2A1A1" stroke-width="1.5" stroke-miterlimit="10" points="30.3,71.8 4.7,59.9 4.8,19 42.2,2.6 
			70.9,32.5 62.7,58.3 		"/>
		<polyline fill="none" stroke="#A2A1A1" stroke-miterlimit="10" points="62.7,58.3 35.6,50.1 59.3,25 		"/>
		<polyline fill="none" stroke="#A2A1A1" stroke-miterlimit="10" points="4.7,59.9 10.2,45.4 4.8,19 26.9,17.9 59.3,25 70.9,32.5 		
			"/>
		<line fill="none" stroke="#A2A1A1" stroke-miterlimit="10" x1="10.2" y1="45.4" x2="35.6" y2="50.1"/>
		<polyline fill="none" stroke="#A2A1A1" stroke-miterlimit="10" points="59.3,25 42.2,2.6 26.9,17.9 35.6,50.1 30.3,71.8 
			10.2,45.4 26.9,17.9 		"/>
	</g>
	<g>
		<g>
			<path fill="#FBD335" d="M37.8,15.4c8.8,0,13.6,4.4,13.6,12.3c0,4.8-1.5,7.9-4.9,9.9c-0.3,0.2-0.5,0.5-0.5,0.8v0.3
				c0,0.4,0.3,0.8,0.7,0.9c4.3,1.5,6.6,5.5,6.6,11.4c0,7.9-5.7,12.9-15,12.9H18.2c-1.4,0-1.5-0.3-1.5-1.4V16.8
				c0-1.2,0.1-1.4,1.5-1.4H37.8 M24.6,36.2h12.1c4.9,0,7.5-2.6,7.5-7.2c0-4.7-2.7-7.2-7.5-7.2H24.6c-0.5,0-1,0.4-1,1v12.5
				C23.6,35.8,24.1,36.2,24.6,36.2 M24.6,57.5H38c5,0,7.7-2.7,7.7-7.5c0-4.9-2.8-7.7-7.7-7.7H24.6c-0.5,0-1,0.4-1,1v13.2
				C23.6,57.1,24.1,57.5,24.6,57.5 M37.8,14.4H18.2c-1.8,0-2.5,0.6-2.5,2.4v45.6c0,1.8,0.6,2.4,2.5,2.4h20.1c9.3,0,16-4.9,16-13.9
				c0-6.4-2.6-10.7-7.2-12.3v-0.3c3.7-2.2,5.4-5.6,5.4-10.7C52.4,19.2,47,14.4,37.8,14.4L37.8,14.4z M24.6,35.2V22.7h12.1
				c4.3,0,6.5,2.1,6.5,6.3c0,4.3-2.3,6.3-6.5,6.3H24.6L24.6,35.2z M24.6,56.6V43.3H38c4.4,0,6.7,2.3,6.7,6.7s-2.3,6.5-6.7,6.5H24.6
				L24.6,56.6z"/>
		</g>
	</g>
	
		<circle fill="none" stroke="#FBD335" stroke-width="0.9865" stroke-linecap="round" stroke-linejoin="round" stroke-miterlimit="10" cx="4.7" cy="59.7" r="4.2"/>
	<circle fill="#A2A1A1" cx="42.2" cy="3.2" r="3.2"/>
	<circle fill="#A2A1A1" cx="70.5" cy="32.8" r="5.3"/>
</g>
</svg>
