<?xml version="1.0" encoding="utf-8"?>
<!-- Generator: Adobe Illustrator 17.1.0, SVG Export Plug-In . SVG Version: 6.00 Build 0)  -->
<!DOCTYPE svg PUBLIC "-//W3C//DTD SVG 1.1//EN" "http://www.w3.org/Graphics/SVG/1.1/DTD/svg11.dtd">
<svg version="1.1" id="Layer_1" xmlns="http://www.w3.org/2000/svg" xmlns:xlink="http://www.w3.org/1999/xlink" x="0px" y="0px"
	 viewBox="0 0 57.9 48.9" enable-background="new 0 0 57.9 48.9" xml:space="preserve">
<g>
	<path fill="#A4A6A9" d="M23.1,40.2c0,0.8,0,3.2,0,4c0,0.9-0.2,1.7-0.6,2.5c-0.6,1-1.4,1.6-2.5,1.8c-0.5,0.1-0.9,0.2-1.4,0.2
		c-0.8,0-1.7,0-2.5,0c-1,0-1.9-0.3-2.7-1c-0.8-0.7-1.3-1.5-1.4-2.5c-0.2-1.3,0.1-2.5,1-3.5c0.7-0.8,1.6-1.2,2.6-1.4
		c0.2,0,0.3,0,0.5,0c0.9,0,1.9,0,2.8,0H23.1z"/>
	<polygon fill="#A4A6A9" points="41.4,20.2 41.4,12.1 22.5,15.9 22.5,24.1 	"/>
	<path fill="#A4A6A9" d="M42,40.8v-4h-4.2c-0.9,0-1.8,0-2.8,0c-0.2,0-0.4,0-0.6,0c-1,0.2-1.8,0.6-2.5,1.4c-0.9,1-1.3,2.2-1,3.6
		c0.4,2,2.1,3.4,4.2,3.4c0.8,0,1.6,0,2.4,0c0.6,0,1.1-0.1,1.7-0.2c1.4-0.4,2.3-1.3,2.7-2.7C41.9,42.1,42,41.5,42,40.8L42,40.8z"/>
	<polygon fill="#A4A6A9" points="22,16 22,40.2 23.1,40.2 23.1,15.8 	"/>
	<polygon fill="#A4A6A9" points="40.8,12.2 40.8,40.2 42,40.2 42,12 	"/>
</g>
</svg>
