<?xml version="1.0" encoding="utf-8"?>
<!-- Generator: Adobe Illustrator 17.1.0, SVG Export Plug-In . SVG Version: 6.00 Build 0)  -->
<!DOCTYPE svg PUBLIC "-//W3C//DTD SVG 1.1//EN" "http://www.w3.org/Graphics/SVG/1.1/DTD/svg11.dtd">
<svg version="1.1" id="Layer_1" xmlns="http://www.w3.org/2000/svg" xmlns:xlink="http://www.w3.org/1999/xlink" x="0px" y="0px"
	 viewBox="0 0 57.9 48.9" enable-background="new 0 0 57.9 48.9" xml:space="preserve">
<g>
	<path fill="#A4A6A9" d="M36.6,25.2C36.5,25.2,36.5,25.2,36.6,25.2C36.5,25.2,36.5,25.2,36.6,25.2c-4.6,0-8.3,3.7-8.4,8.3
		c0,4.6,3.7,8.4,8.3,8.4c0,0,0,0,0,0c4.6,0,8.3-3.7,8.3-8.2C44.9,28.9,41.1,25.2,36.6,25.2z"/>
	<path fill="#A4A6A9" d="M51.6,22.1c0-0.2,0-0.3,0-0.5c-0.1-0.7-0.3-1.3-0.8-1.9c-0.7-0.9-1.7-1.4-2.9-1.4c-0.7,0-1.5,0-2.2,0
		c0,0-0.1,0-0.1,0c0,0,0-0.1,0-0.1c-0.1-0.8-0.7-1.4-1.5-1.4c-0.5,0-1,0-1.5,0c-0.6,0-1.1,0.3-1.4,0.9c-0.1,0.2-0.1,0.4-0.2,0.6
		c0,0-0.1,0-0.1,0c-2.6,0-5.1,0-7.7,0c-2.1,0-4.3,0-6.4,0c-0.3,0-0.6-0.1-0.8-0.4c-0.1-0.1-0.2-0.3-0.3-0.5
		c-0.2-0.5-0.5-1.1-0.7-1.6c-0.2-0.3-0.3-0.7-0.6-1c-0.2-0.3-0.5-0.4-0.8-0.4c-0.3,0-0.7,0-1,0c-2.4,0-4.8,0-7.2,0
		c-0.2,0-0.4,0.1-0.6,0.2c-0.2,0.2-0.3,0.3-0.4,0.6c-0.2,0.4-0.4,0.9-0.6,1.3c-0.2,0.4-0.3,0.8-0.6,1.2c-0.2,0.3-0.5,0.5-1,0.5
		c-0.7,0-1.5,0-2.2,0c-0.2,0-0.5,0-0.7,0.1c-1.8,0.4-3,1.9-3,3.7c0,7.5,0,15.1,0,22.6c0,0.3,0,0.6,0.1,0.8c0.4,1.7,1.9,3,3.7,3
		c12.6,0,25.2,0,37.9,0c0.3,0,0.6,0,0.9-0.1c1.7-0.4,2.9-1.9,2.9-3.7C51.6,37.3,51.6,29.7,51.6,22.1z M21.4,24.6
		c-0.1,0.6-0.6,1.2-1.2,1.2c-0.1,0-0.2,0-0.3,0c-0.7,0-1.5,0-2.2,0c-0.7,0-1.5,0-2.2,0c-0.7,0-1.3-0.5-1.5-1.2c0-0.1,0-0.3,0-0.4
		c0-0.3,0-0.6,0-0.9c0.1-0.7,0.7-1.2,1.4-1.3c0.1,0,0.2,0,0.2,0c1.4,0,2.8,0,4.3,0c0.5,0,0.9,0.1,1.2,0.5c0.2,0.3,0.4,0.6,0.4,0.9
		C21.4,23.9,21.4,24.3,21.4,24.6z M36.5,42.8c-2.5,0-4.8-1-6.6-2.7c-1.8-1.8-2.7-4.1-2.7-6.6c0-5.1,4.2-9.2,9.3-9.2l0,0h0
		c2.5,0,4.8,1,6.6,2.8c1.8,1.8,2.7,4.1,2.7,6.7C45.7,38.7,41.6,42.8,36.5,42.8z"/>
</g>
</svg>
