<?xml version="1.0" encoding="utf-8"?>
<!-- Generator: Adobe Illustrator 17.1.0, SVG Export Plug-In . SVG Version: 6.00 Build 0)  -->
<!DOCTYPE svg PUBLIC "-//W3C//DTD SVG 1.1//EN" "http://www.w3.org/Graphics/SVG/1.1/DTD/svg11.dtd">
<svg version="1.1" id="Layer_1" xmlns="http://www.w3.org/2000/svg" xmlns:xlink="http://www.w3.org/1999/xlink" x="0px" y="0px"
	 viewBox="0 123.3 595.3 595.3" enable-background="new 0 123.3 595.3 595.3" xml:space="preserve">
<g>
	<path fill="#FFF229" d="M297.6,123.3v24.4c150.8,0,273.3,122.5,273.3,273.3S448.4,694.2,297.6,694.2S24.4,571.7,24.4,420.9
		c0-121.4,79.4-224.5,189.1-260l-0.1-0.1l-7.7-23.1C86.2,176.4,0,288.4,0,420.9c0,164.6,133,297.6,297.6,297.6
		s297.6-133,297.6-297.6S462.3,123.3,297.6,123.3z"/>
	<path fill="#FFF229" d="M213.4,160.9c26.5-8.6,54.8-13.3,84.2-13.3v-24.4c-32.1,0-63,5.1-92,14.5l7.7,23.1L213.4,160.9z"/>
	<path fill="#A1A3A6" enable-background="new    " d="M213.4,160.9c26.5-8.6,54.8-13.3,84.2-13.3v-24.4c-32.1,0-63,5.1-92,14.5
		l7.7,23.1L213.4,160.9z"/>
</g>
</svg>
