<?xml version="1.0" encoding="utf-8"?>
<!-- Generator: Adobe Illustrator 17.1.0, SVG Export Plug-In . SVG Version: 6.00 Build 0)  -->
<!DOCTYPE svg PUBLIC "-//W3C//DTD SVG 1.1//EN" "http://www.w3.org/Graphics/SVG/1.1/DTD/svg11.dtd">
<svg version="1.1" id="Layer_1" xmlns="http://www.w3.org/2000/svg" xmlns:xlink="http://www.w3.org/1999/xlink" x="0px" y="0px"
	 viewBox="0 0 57.9 48.9" enable-background="new 0 0 57.9 48.9" xml:space="preserve">
<g>
	<path fill="#A3A5A8" d="M9.9,43c-0.9,0-1.7,0-2.6,0c-0.2,0-0.3,0-0.5,0c-0.6-0.1-1-0.3-1.2-0.9c-0.1-0.4-0.1-0.7,0-1.1
		c0.6-2.6,1.3-5.1,1.9-7.7c0.4-1.4,0.7-2.9,1.1-4.3c0.2-1,0.6-1.8,1.3-2.6c0.4-0.5,0.9-0.9,1.5-1.2c0.9-0.4,1.8-0.6,2.8-0.6
		c6.7,0,13.3,0,20,0c0.9,0,1.5,0.3,2,1.1c1.3,2.1,2.7,4.3,4.1,6.4c0.1,0.1,0.1,0.1,0.2,0.1c2.5,0,5,0,7.5,0c0.7,0,1.3,0.2,1.8,0.6
		c0.7,0.5,1.1,1.1,1.3,1.9c0,0.3,0,0.6,0,1c0,1.1,0,2.2,0,3.2c0,0,0,0.1,0,0.1c0.4,0,0.9,0,1.3,0c0,0,0,0,0,0c0,0.9,0,1.9,0,2.8
		c0,0.6-0.4,1-1.1,1.1c-0.5,0-1,0-1.5,0c0,0,0,0,0,0c0,0,0,0,0-0.1c-0.1-0.6-0.2-1.1-0.4-1.6c-0.4-1-1.1-1.8-1.9-2.4
		c-1.1-0.8-2.3-1.3-3.6-1.4c-0.9-0.1-1.8,0-2.6,0.3c-1.2,0.4-2.2,1.1-3.1,2.1c-0.7,0.8-1.1,1.6-1.3,2.6c0,0.2,0,0.3-0.1,0.5
		c-4.6,0-9.2,0-13.9,0c0,0,0-0.1,0-0.1c0-0.4-0.1-0.8-0.3-1.3c-0.3-0.9-0.9-1.7-1.6-2.3c-1.1-1-2.4-1.7-4-1.8c-0.7-0.1-1.3,0-2,0.1
		c-1.6,0.3-2.9,1.2-3.9,2.4c-0.6,0.7-0.9,1.4-1.1,2.3c0,0.2-0.1,0.5-0.1,0.7C10,43,10,43,9.9,43z M26.7,32.7c0.5,0,1-0.4,0.9-1
		c0-1.1,0-2.3,0-3.4c0-0.5-0.3-1-1-1c-0.9,0-1.9,0-2.8,0c-1.1,0-2.2,0-3.2,0c-0.2,0-0.4,0-0.6,0.2c-0.3,0.2-0.4,0.5-0.4,0.8
		c0,1.1,0,2.3,0,3.4c0,0.5,0.3,0.9,0.7,0.9c0.1,0,0.2,0,0.2,0c1,0,2,0,3.1,0C24.7,32.7,25.7,32.6,26.7,32.7z M36.6,32.6
		c0.5,0,0.8-0.4,0.5-0.9c-0.6-1-1.2-2.1-1.8-3.1c-0.1-0.3-0.3-0.5-0.4-0.8c-0.2-0.4-0.5-0.6-1-0.6c-1.2,0-2.3,0-3.5,0
		c-0.6,0-0.9,0.3-0.9,0.9c0,0.9,0,1.7,0,2.6c0,0.3,0,0.6,0,0.9c0,0.6,0.4,0.9,1,0.9c1,0,2.1,0,3.1,0C34.6,32.6,35.6,32.6,36.6,32.6z
		 M13.8,34.1c0-0.7-0.6-1.2-1.3-1.2c-0.7,0-1.2,0.6-1.2,1.3c0,0.7,0.6,1.3,1.3,1.2C13.2,35.4,13.8,34.8,13.8,34.1z"/>
	<path fill="none" stroke="#A3A5A8" stroke-miterlimit="10" d="M27.8,23.5c-2.7,0.2-5.5,0.1-8.2-0.1l-1.5-0.1
		c-4.2-0.4-8.4-1.1-12.4-2.4c0,0,0,0,0,0c0-1.2,0-2.5,0-3.7c0-0.1,0-0.1,0.1-0.1c0.4-0.1,0.7-0.2,1.1-0.4c2.4-0.8,4.9-1.5,7.4-2
		c1.5-0.3,3-0.6,4.5-0.8c0.9-0.1,1.8-0.2,2.7-0.3c0.9-0.1,1.8-0.1,2.7-0.1c0.9,0,1.9,0,2.8,0c1.1,0,2.2,0.1,3.3,0.2
		c1,0.1,2,0.2,3,0.4c1.2,0.2,2.4,0.4,3.6,0.7c1.4,0.3,2.8,0.8,4.1,1.3c0.8,0.3,1.5,0.7,2.2,1.2c0.3,0.2,0.6,0.5,0.7,0.8
		c0.1,0.2,0.2,0.5,0,0.7c-0.1,0.2-0.2,0.3-0.3,0.4c-0.5,0.5-1.1,0.8-1.7,1.1c-1,0.6-2.3,1.1-3.3,1.3c-1.5,0.5-3,0.8-4.5,1.1
		c-0.7,0.1-1.5,0.2-2.2,0.3c-0.7,0.1-1.4,0.2-2.1,0.2c-0.1,0-0.2,0-0.4,0L27.8,23.5z"/>
	<path fill="#A3A5A8" d="M12.1,44c0-2.4,2-4.5,4.4-4.5c2.4,0,4.4,2,4.5,4.4c0,2.6-2.1,4.5-4.4,4.5C14.1,48.4,12.1,46.4,12.1,44z
		 M18.4,43.9c0-1-0.9-1.8-1.9-1.8c-1,0-1.8,0.8-1.8,1.9c0,1,0.8,1.9,1.9,1.9C17.6,45.8,18.4,44.9,18.4,43.9z"/>
	<path fill="#A3A5A8" d="M43.3,39.6c2.5,0,4.4,2,4.5,4.3c0,2.4-2,4.5-4.4,4.5c-2.4,0-4.5-2-4.5-4.4C38.9,41.5,41,39.6,43.3,39.6z
		 M41.5,43.9c-0.1,1.1,0.8,1.9,1.7,2c1.1,0.1,1.9-0.7,2-1.8c0.1-1-0.8-1.9-1.8-1.9C42.4,42.1,41.5,42.9,41.5,43.9z"/>
	<path fill="#A3A5A8" d="M11.5,18.9c0-0.3-0.2-0.5-0.5-0.5H8.2c-0.3,0-0.5,0.2-0.5,0.5l0,0c0,0.3,0.2,0.5,0.5,0.5H11
		C11.2,19.4,11.5,19.2,11.5,18.9L11.5,18.9z"/>
	<path fill="#A3A5A8" d="M19.6,24.9c0,0.4-0.3,0.8-0.8,0.8l0,0c-0.4,0-0.8-0.3-0.8-0.8V21c0-0.4,0.3-0.8,0.8-0.8l0,0
		c0.4,0,0.8,0.3,0.8,0.8V24.9z"/>
	<path fill="#A3A5A8" d="M29.3,24.9c0,0.4-0.3,0.8-0.8,0.8l0,0c-0.4,0-0.8-0.3-0.8-0.8V21c0-0.4,0.3-0.8,0.8-0.8l0,0
		c0.4,0,0.8,0.3,0.8,0.8V24.9z"/>
</g>
</svg>
