<?xml version="1.0" encoding="utf-8"?>
<!-- Generator: Adobe Illustrator 17.1.0, SVG Export Plug-In . SVG Version: 6.00 Build 0)  -->
<!DOCTYPE svg PUBLIC "-//W3C//DTD SVG 1.1//EN" "http://www.w3.org/Graphics/SVG/1.1/DTD/svg11.dtd">
<svg version="1.1" id="Layer_1" xmlns="http://www.w3.org/2000/svg" xmlns:xlink="http://www.w3.org/1999/xlink" x="0px" y="0px"
	 viewBox="0 0 57.9 48.9" enable-background="new 0 0 57.9 48.9" xml:space="preserve">
<g>
	<g>
		<path fill="#A4A6A9" d="M30.6,26.8c-0.4,0.1-0.8,0.3-1.2,0.5c-3.9,1.4-7.8,2.9-11.7,4.3c-0.1,0-0.2,0.1-0.2,0.2
			c-0.6,1.5-1.1,3.1-1.7,4.6c0,0.1-0.1,0.2-0.2,0.2c-0.8,0.3-1.6,0.6-2.5,0.9c0,0-0.1,0-0.1,0c0-0.3,0-0.6,0-0.8c0-0.6,0-1.2,0-1.8
			c0-0.7-0.1-1.4-0.1-2.2c0-0.7,0-1.4,0-2.1c0,0,0-0.1-0.1-0.1c-0.7-0.7-1.4-1.5-2.2-2.2c-1.1-1.1-2.1-2.2-3.2-3.2c0,0,0,0-0.1-0.1
			c0.4-0.1,0.7-0.2,1.1-0.3c0.5-0.2,1-0.3,1.5-0.5c0.1,0,0.1,0,0.2,0c1.3,0.7,2.5,1.3,3.8,2c0.6,0.3,1.3,0.7,1.9,1
			c0.1,0,0.1,0,0.2,0c2.4-0.9,4.7-1.9,7.1-2.8c1.7-0.7,3.4-1.4,5.2-2c0,0,0.1,0,0.1-0.1c-0.1-0.1-0.1-0.1-0.2-0.2
			c-1.2-1.2-2.5-2.5-3.7-3.7c-0.9-0.9-1.8-1.9-2.7-2.8c-0.7-0.7-1.4-1.4-2.1-2.2c-1.3-1.3-2.7-2.7-4-4c-0.3-0.3-0.7-0.6-1-0.9
			c-0.3-0.3-0.5-0.6-0.7-0.9C14.1,7.5,14,7.3,14,7.2C14,7,14,6.9,14.2,6.8c0.1-0.1,0.3-0.1,0.5-0.1c0.7,0,1.4,0.1,2.1,0.3
			c2.3,0.5,4.6,1.3,6.7,2.2c0.1,0,0.2,0,0.2,0c0.8-0.3,1.6-0.6,2.5-0.8c0.5-0.1,1-0.2,1.5-0.1c0.2,0,0.4,0.1,0.6,0.2
			c0.2,0.1,0.3,0.3,0.2,0.5c-0.1,0.2-0.2,0.3-0.3,0.5c-0.5,0.5-1,0.9-1.6,1.2c-0.3,0.2-0.6,0.3-0.9,0.5c0.1,0.1,0.2,0.2,0.3,0.2
			c1.1,0.8,2.3,1.5,3.4,2.3c0.1,0.1,0.2,0.1,0.3,0c1.1-0.6,2.1-1.1,3.3-1.4c0.3-0.1,0.7-0.2,1-0.1c0.3,0.1,0.5,0.3,0.4,0.7
			c-0.1,0.4-0.3,0.8-0.5,1.1c-0.2,0.3-0.4,0.6-0.7,1c0,0,0,0,0,0c1.2,0.7,2.3,1.5,3.4,2.2c0.6,0.4,1.3,0.8,2,1.3
			c0.1,0.1,0.2,0.1,0.3,0c2-0.7,4.1-1.4,6.1-2c1.2-0.3,2.5-0.6,3.7-0.8c0.7-0.1,1.4-0.2,2.1-0.2c0.3,0,0.5,0.1,0.8,0.2
			c0.4,0.1,0.5,0.4,0.3,0.8c-0.2,0.4-0.5,0.8-0.9,1.1c-1.1,1-2.3,1.7-3.6,2.4c-2.3,1.2-4.8,2.2-7.2,3.1c-0.1,0-0.2,0.1-0.2,0.2
			c-0.5,2-0.9,4-1.4,5.9c0,0,0,0.1,0,0.2c0.2,0,0.4,0,0.6-0.1c0.6,0,1.3-0.1,1.9,0.1c0.1,0,0.3,0.1,0.4,0.2c0.2,0.2,0.3,0.4,0.2,0.7
			c-0.1,0.3-0.3,0.5-0.6,0.6c-0.6,0.5-1.4,0.8-2.1,0.9c-0.7,0.2-1.4,0.3-2.1,0.3c-0.1,0-0.1,0-0.2,0.1c-0.4,1.5-0.8,3.1-1.2,4.6
			c0,0,0,0,0,0.1c0.3,0,0.6,0,1-0.1c0.6,0,1.2,0,1.8,0.1c0.2,0,0.4,0.1,0.6,0.2c0.3,0.2,0.3,0.4,0.2,0.7c-0.2,0.3-0.4,0.5-0.7,0.7
			c-0.8,0.6-1.7,0.9-2.7,1.1c-0.3,0-0.5,0.1-0.8,0.1c-0.1,0-0.1,0-0.2,0.1c-0.2,0.9-0.5,1.7-0.9,2.6c-0.7,1.6-1.5,3.1-2.6,4.5
			c-0.3,0.5-0.7,0.9-1.1,1.3c-0.2,0.2-0.4,0.3-0.6,0.3c-0.2,0-0.3-0.1-0.4-0.3c-0.1-0.3-0.2-0.5-0.2-0.8c-0.1-0.9,0-1.8,0.2-2.7
			c0.1-0.7,0.1-1.4,0.1-2.1c0-0.9,0.1-1.8,0.1-2.7c0.1-0.9,0.1-1.7,0.2-2.6c0.1-0.9,0.2-1.8,0.3-2.6c0.1-0.8,0.2-1.7,0.2-2.5
			c0.1-0.8,0.1-1.7,0.2-2.5c0-0.6,0.1-1.3,0.1-1.9C30.6,27.4,30.6,27.1,30.6,26.8z"/>
	</g>
</g>
</svg>
