<?xml version="1.0" encoding="utf-8"?>
<!-- Generator: Adobe Illustrator 17.1.0, SVG Export Plug-In . SVG Version: 6.00 Build 0)  -->
<!DOCTYPE svg PUBLIC "-//W3C//DTD SVG 1.1//EN" "http://www.w3.org/Graphics/SVG/1.1/DTD/svg11.dtd">
<svg version="1.1" id="Layer_1" xmlns="http://www.w3.org/2000/svg" xmlns:xlink="http://www.w3.org/1999/xlink" x="0px" y="0px"
	 viewBox="0 0 30 30" enable-background="new 0 0 30 30" xml:space="preserve">
<g>
	<path fill="#C4C4C4" d="M15,0C6.7,0,0,6.7,0,15c0,8.3,6.7,15,15,15c8.3,0,15-6.7,15-15C30,6.7,23.3,0,15,0z M23.2,11.8
		c0,0,0.4,5.6-4.3,9.3c-4.8,3.7-11.1,1.7-12.4,0.4c0,0,3.3,0.3,5.6-1.6c0,0-2.8-0.1-3.6-2.7c0,0,0.8,0.2,1.6-0.1c0,0-3-0.7-2.9-3.7
		c0,0,1,0.4,1.6,0.5c0,0-2.8-2-1-5.2c0,0,2.2,3.5,7.8,4c0,0-0.6-2.7,1.6-4.1c2.7-1.7,5,0.6,5,0.6s1.4-0.2,2.4-0.9
		c0,0-0.2,1.3-1.5,2.1c0,0,1-0.1,2.1-0.6C25.1,9.8,24.3,11.1,23.2,11.8z"/>
</g>
</svg>
